<?xml version="1.0" encoding="utf-8"?>
<!-- Generator: Adobe Illustrator 16.0.0, SVG Export Plug-In . SVG Version: 6.00 Build 0)  -->
<!DOCTYPE svg PUBLIC "-//W3C//DTD SVG 1.1//EN" "http://www.w3.org/Graphics/SVG/1.1/DTD/svg11.dtd">
<svg version="1.1" id="_x33_0" xmlns="http://www.w3.org/2000/svg" xmlns:xlink="http://www.w3.org/1999/xlink" x="0px" y="0px"
	 width="512px" height="512px" viewBox="0 0 512 512" enable-background="new 0 0 512 512" xml:space="preserve">
<g>
	<path fill="#4BB6FF" d="M461.833,272.467l-115.267,123.5V503H165.434V395.967l-115.267-123.5l41.167-32.934l123.5,115.267v49.4
		c10.539-10.539,24.865-16.467,39.767-16.467H256h1.398c14.902,0,29.229,5.928,39.769,16.467v-49.4l123.5-115.267L461.833,272.467z"
		/>
</g>
<g>
	
		<image overflow="visible" opacity="0.26" enable-background="new    " width="78" height="86" xlink:href="F190E5F0.png"  transform="matrix(1 0 0 1 237.5 339.5)">
	</image>
	<g>
		<g>
			<path fill="#48E1FF" d="M297.167,354.8v49.4c-10.539-10.539-24.865-16.467-39.769-16.467H256L297.167,354.8z"/>
		</g>
	</g>
</g>
<g>
	
		<image overflow="visible" opacity="0.26" enable-background="new    " width="78" height="86" xlink:href="F190E5F3.png"  transform="matrix(1 0 0 1 196.5 339.5)">
	</image>
	<g>
		<g>
			<path fill="#48E1FF" d="M256,387.733h-1.399c-14.902,0-29.229,5.928-39.767,16.467v-49.4L256,387.733z"/>
		</g>
	</g>
</g>
<g>
	<path fill="#F0D0B4" d="M484.887,231.3c10.045,0,18.113,8.069,18.113,18.114c0,8.645-6.093,16.055-14.573,17.702l-26.594,5.352
		l-41.166-32.934l3.293-9.797c2.964-8.892,11.28-14.902,20.666-14.902c5.763,0,11.279,2.305,15.313,6.34l10.127,10.126
		L484.887,231.3L484.887,231.3z"/>
</g>
<g>
	<path fill="#FFE090" d="M494.767,99.566c5.271,5.27,8.233,12.433,8.233,19.843c0,8.315-3.705,16.137-10.045,21.489L453.6,173.667
		l-39.354-32.769c-6.34-5.352-10.044-13.173-10.044-21.489c0-7.41,2.964-14.573,8.232-19.843c5.271-5.269,12.434-8.233,19.844-8.233
		h1.48c7.41,0,14.572,2.964,19.842,8.233c5.271-5.269,12.434-8.233,19.844-8.233h1.48C482.334,91.333,489.497,94.297,494.767,99.566
		z"/>
</g>
<g>
	<path fill="#FCA1C0" d="M379.5,17.233c5.27,5.27,8.232,12.433,8.232,19.843c0,8.315-3.705,16.137-10.045,21.489l-39.354,32.769
		l-39.354-32.769c-6.34-5.352-10.045-13.174-10.045-21.489c0-7.41,2.965-14.573,8.233-19.843S309.6,9,317.008,9h1.484
		c7.408,0,14.57,2.964,19.841,8.233C343.604,11.964,350.766,9,358.175,9h1.483C367.066,9,374.23,11.964,379.5,17.233z"/>
</g>
<g>
	<path fill="#656D78" d="M321.867,214.998c-5.021,4.94-11.855,8.069-19.596,8.069c-8.398,0-16.386-3.87-21.654-10.457l-9.797-12.186
		c-9.387-11.691-23.548-18.525-38.532-18.525H231.3c-10.703,0-21.242,3.211-30.134,9.139c-6.916,4.61-11.032,12.268-11.032,20.583
		v1.894c0,0.906,0,1.729,0.083,2.634l1.07,15.149H181.9c-6.586,0-12.515,2.553-16.878,6.669l-5.435-21.736
		c-1.564-6.422-2.387-12.926-2.387-19.595c0-22.23,9.056-42.401,23.629-56.975c14.573-14.574,34.745-23.63,56.975-23.63h36.391
		c44.459,0,80.604,36.145,80.604,80.604c0,6.669-0.822,13.173-2.388,19.595l-5.435,21.736c-4.363-4.116-10.291-6.669-16.879-6.669
		h-9.386L321.867,214.998z"/>
</g>
<g>
	<path fill="#F0D0B4" d="M346.979,237.969c4.857,4.528,7.821,10.951,7.821,18.031c0,6.834-2.8,13.01-7.245,17.455
		S336.936,280.7,330.1,280.7h-13.502c0.575-2.636,0.987-5.353,1.152-8.068l2.964-41.332h9.386
		C336.688,231.3,342.615,233.853,346.979,237.969z"/>
</g>
<g>
	<path fill="#F0D0B4" d="M321.867,214.998l-1.153,16.302l-2.964,41.332c-0.165,2.716-0.577,5.433-1.152,8.068
		c-3.951,19.595-17.125,35.648-34.662,43.637c-7.904,3.705-16.713,5.763-25.936,5.763c-9.221,0-18.031-2.058-25.935-5.763
		c-6.01-2.718-11.444-6.422-16.22-10.868c-9.221-8.563-15.808-19.924-18.442-32.769c-0.577-2.636-0.988-5.353-1.153-8.068
		l-2.964-41.332l-1.07-15.149c-0.083-0.905-0.083-1.729-0.083-2.634v-1.894c0-8.315,4.117-15.973,11.033-20.583
		c8.892-5.928,19.431-9.139,30.134-9.139h0.988c14.984,0,29.146,6.834,38.532,18.525l9.797,12.186
		c5.27,6.587,13.256,10.457,21.654,10.457C310.011,223.067,316.846,219.938,321.867,214.998L321.867,214.998z"/>
</g>
<g>
	
		<linearGradient id="SVGID_1_" gradientUnits="userSpaceOnUse" x1="140.0005" y1="270.6777" x2="140.0005" y2="237.68" gradientTransform="matrix(1 0 0 -1 116 591)">
		<stop  offset="0" style="stop-color:#E1B192"/>
		<stop  offset="1" style="stop-color:#F0D0B4"/>
	</linearGradient>
	<path fill="url(#SVGID_1_)" d="M281.936,324.42l15.231,30.38L256,387.733L214.833,354.8l15.231-30.38v-0.083
		c7.904,3.705,16.714,5.763,25.935,5.763c9.222,0,18.03-2.058,25.937-5.763V324.42L281.936,324.42z"/>
</g>
<g>
	<path fill="#FF826E" d="M280.7,264.232v8.233c0,13.666-11.033,24.7-24.7,24.7s-24.7-11.034-24.7-24.7v-8.233H280.7z"/>
</g>
<g>
	<path fill="#FFE090" d="M214.833,17.233c5.269,5.27,8.233,12.433,8.233,19.843c0,8.315-3.706,16.137-10.044,21.489l-39.356,32.769
		l-39.355-32.769c-6.339-5.352-10.044-13.174-10.044-21.489c0-7.41,2.964-14.573,8.233-19.843S144.933,9,152.342,9h1.482
		c7.41,0,14.573,2.964,19.842,8.233C178.936,11.964,186.099,9,193.509,9h1.482C202.401,9,209.564,11.964,214.833,17.233z"/>
</g>
<g>
	<path fill="#F0D0B4" d="M195.403,280.7H181.9c-6.833,0-13.009-2.8-17.455-7.245c-4.446-4.445-7.245-10.621-7.245-17.455
		c0-7.081,2.964-13.503,7.822-18.031c4.363-4.116,10.292-6.669,16.878-6.669h9.386l2.964,41.332
		C194.415,275.348,194.826,278.064,195.403,280.7z"/>
</g>
<g>
	<path fill="#FCA1C0" d="M99.567,99.566c5.269,5.27,8.233,12.433,8.233,19.843c0,8.315-3.705,16.137-10.044,21.489L58.4,173.667
		l-39.355-32.769C12.705,135.546,9,127.725,9,119.409c0-7.41,2.964-14.573,8.233-19.843c5.27-5.269,12.432-8.233,19.842-8.233h1.483
		c7.41,0,14.572,2.964,19.842,8.233c5.27-5.269,12.433-8.233,19.842-8.233h1.482C87.134,91.333,94.297,94.297,99.567,99.566z"/>
</g>
<g>
	<path fill="#F0D0B4" d="M88.04,229.736l3.293,9.797l-41.167,32.934l-26.593-5.352C15.093,265.469,9,258.059,9,249.414
		c0-5.023,1.976-9.551,5.27-12.844c3.293-3.293,7.822-5.27,12.844-5.27h14.82l10.127-10.126c4.034-4.035,9.551-6.34,15.314-6.34
		C76.76,214.833,85.076,220.844,88.04,229.736z"/>
</g>
</svg>
