<?xml version="1.0" encoding="utf-8"?>
<!-- Generator: Adobe Illustrator 16.0.0, SVG Export Plug-In . SVG Version: 6.00 Build 0)  -->
<!DOCTYPE svg PUBLIC "-//W3C//DTD SVG 1.1//EN" "http://www.w3.org/Graphics/SVG/1.1/DTD/svg11.dtd">
<svg version="1.1" id="Capa_1" xmlns="http://www.w3.org/2000/svg" xmlns:xlink="http://www.w3.org/1999/xlink" x="0px" y="0px"
	 width="512px" height="512px" viewBox="0 0 512 512" enable-background="new 0 0 512 512" xml:space="preserve">
<g id="Shape">
	<linearGradient id="SVGID_1_" gradientUnits="userSpaceOnUse" x1="35.3105" y1="304.5518" x2="476.6895" y2="304.5518">
		<stop  offset="0" style="stop-color:#FCA1C0"/>
		<stop  offset="1" style="stop-color:#FCA1C0"/>
	</linearGradient>
	<path fill="url(#SVGID_1_)" d="M441.379,117.104c8.442,0,15.311,6.868,15.311,15.311v238.345c0,8.442-6.868,15.311-15.311,15.311
		h-88.275c-0.021,0-0.042,0-0.063,0c-11.73,0.037-22.954,5.648-30.022,15.011c-0.013,0.017-0.025,0.034-0.038,0.051L256,490.438
		l-66.979-89.307c-0.013-0.017-0.025-0.034-0.038-0.051c-7.068-9.362-18.292-14.974-30.023-15.011c-0.021,0-0.042,0-0.063,0H70.621
		c-8.442,0-15.31-6.868-15.31-15.311V132.414c0-8.442,6.868-15.311,15.31-15.311h306.141H441.379 M441.379,97.104h-64.617H70.621
		c-19.501,0-35.31,15.809-35.31,35.311v238.345c0,19.501,15.809,35.311,35.31,35.311h88.276c5.553,0.018,10.778,2.63,14.124,7.062
		l69.385,92.514C245.771,509.672,250.751,512,256,512s10.229-2.328,13.595-6.355l69.385-92.514
		c3.346-4.432,8.571-7.044,14.124-7.062h88.275c19.502,0,35.311-15.81,35.311-35.311V132.414
		C476.689,112.913,460.881,97.104,441.379,97.104L441.379,97.104z"/>
</g>
<path id="Shape_1_" fill="#464F5D" d="M232.039,378.327c-4.411,0-7.987-3.576-7.987-7.986v-15.975c0-4.411,3.577-7.987,7.987-7.987
	c4.411,0,7.987,3.576,7.987,7.987v15.975C240.026,374.751,236.45,378.327,232.039,378.327z"/>
<path id="Shape_2_" fill="#464F5D" d="M279.961,378.327c-4.411,0-7.987-3.576-7.987-7.986v-15.975c0-4.411,3.576-7.987,7.987-7.987
	c4.41,0,7.987,3.576,7.987,7.987v15.975C287.948,374.751,284.371,378.327,279.961,378.327z"/>
<g>
	<path id="Shape_3_" fill="#FFC270" d="M128.208,66.835c-1.814,0.001-3.575-0.616-4.992-1.749L83.282,33.138
		c-3.445-2.756-4.003-7.784-1.246-11.229c2.757-3.445,7.784-4.003,11.229-1.246L133.2,52.611c2.65,2.119,3.672,5.681,2.548,8.882
		C134.625,64.695,131.602,66.837,128.208,66.835z"/>
	<path id="Shape_4_" fill="#FFC270" d="M383.791,66.835c-3.393,0.001-6.416-2.141-7.539-5.342c-1.124-3.201-0.103-6.764,2.548-8.882
		l39.935-31.948c3.445-2.757,8.473-2.199,11.229,1.246c2.757,3.445,2.199,8.473-1.246,11.229l-39.935,31.948
		C387.366,66.22,385.606,66.836,383.791,66.835z"/>
	<path id="Shape_5_" fill="#FFC270" d="M88.273,298.458c-3.393,0.001-6.417-2.141-7.54-5.343c-1.124-3.201-0.102-6.763,2.548-8.882
		l39.935-31.948c2.229-1.784,5.24-2.243,7.898-1.204c2.659,1.038,4.562,3.416,4.992,6.237c0.43,2.822-0.678,5.659-2.906,7.443
		l-39.935,31.946C91.849,297.841,90.088,298.459,88.273,298.458L88.273,298.458z"/>
	<path id="Shape_6_" fill="#FFC270" d="M423.726,298.458c-1.813,0.001-3.574-0.617-4.991-1.75L378.8,264.761
		c-3.445-2.757-4.003-7.784-1.245-11.229c2.756-3.445,7.784-4.003,11.229-1.246l39.935,31.948c2.65,2.119,3.673,5.681,2.549,8.882
		C430.144,296.317,427.119,298.459,423.726,298.458L423.726,298.458z"/>
	<path id="Shape_7_" fill="#FFC270" d="M112.235,154.692H88.273c-4.411,0-7.987-3.576-7.987-7.987c0-4.411,3.576-7.986,7.987-7.986
		h23.961c4.411,0,7.987,3.576,7.987,7.986C120.222,151.116,116.646,154.692,112.235,154.692z"/>
	<path id="Shape_8_" fill="#FFC270" d="M423.726,154.692h-23.96c-4.411,0-7.986-3.576-7.986-7.987c0-4.411,3.575-7.986,7.986-7.986
		h23.96c4.412,0,7.987,3.576,7.987,7.986C431.713,151.116,428.138,154.692,423.726,154.692z"/>
</g>
<path id="Shape_9_" fill="#95A5A5" d="M303.921,282.484v47.921c0,13.233-10.727,23.961-23.96,23.961h-47.922
	c-13.233,0-23.961-10.728-23.961-23.961v-47.921H303.921z"/>
<linearGradient id="Shape_16_" gradientUnits="userSpaceOnUse" x1="144.1758" y1="158.7432" x2="367.8174" y2="158.7432">
	<stop  offset="0" style="stop-color:#FFE090"/>
	<stop  offset="1" style="stop-color:#FFE090"/>
</linearGradient>
<path id="Shape_10_" fill="url(#Shape_16_)" d="M367.817,130.731c0.026,30.93-12.821,60.475-35.462,81.547
	c-18.528,17.874-28.823,42.627-28.435,68.368v17.812h-95.843v-16.453c0.377-26.373-10.072-51.748-28.913-70.206
	c-24.971-23.477-37.704-57.167-34.504-91.291c5.523-59.464,56.798-104.093,116.456-101.36
	C320.774,21.881,367.756,71.011,367.817,130.731L367.817,130.731z"/>
<path id="Shape_11_" fill="#FF9D43" d="M240.026,274.496c-4.411,0-7.987-3.575-7.987-7.986v-23.961c0-4.411,3.576-7.987,7.987-7.987
	c4.411,0,7.987,3.576,7.987,7.987v23.961C248.013,270.921,244.437,274.496,240.026,274.496z"/>
<path id="Shape_12_" fill="#FF9D43" d="M240.026,210.601c-4.411,0-7.987-3.576-7.987-7.987v-7.987c0-4.411,3.576-7.987,7.987-7.987
	c4.411,0,7.987,3.576,7.987,7.987v7.987C248.013,207.025,244.437,210.601,240.026,210.601z"/>
<path id="Shape_13_" fill="#FF9D43" d="M271.974,274.496c-4.411,0-7.986-3.575-7.986-7.986v-23.961c0-4.411,3.575-7.987,7.986-7.987
	s7.987,3.576,7.987,7.987v23.961C279.961,270.921,276.385,274.496,271.974,274.496z"/>
<path id="Shape_14_" fill="#FF9D43" d="M271.974,210.601c-4.411,0-7.986-3.576-7.986-7.987v-7.987c0-4.411,3.575-7.987,7.986-7.987
	s7.987,3.576,7.987,7.987v7.987C279.961,207.025,276.385,210.601,271.974,210.601z"/>
<path id="Shape_15_" fill="#FFF5D1" d="M184.117,114.757c-0.515,0-1.028-0.051-1.533-0.152c-4.322-0.845-7.145-5.029-6.31-9.353
	c7.388-38.026,43.209-53.169,44.727-53.792c2.638-1.089,5.657-0.688,7.918,1.053c2.262,1.741,3.423,4.555,3.047,7.384
	c-0.376,2.829-2.233,5.242-4.872,6.331c-0.303,0.12-29.432,12.644-35.143,42.06C191.226,112.042,187.941,114.754,184.117,114.757z"
	/>
</svg>
