<svg xmlns="http://www.w3.org/2000/svg" viewBox="0 0 2521.55 1528.64"><defs><style>.cls-1{fill:#ebf3fa}.cls-2{fill:#c8dbf4}.cls-3{fill:#d4e4f8}.cls-5{fill:#a4c4e0}.cls-6{fill:#b7cfea}.cls-8{fill:#dfebfd}.cls-9{fill:#b7d3f3}.cls-10{fill:#9abfe2}.cls-14{fill:#ffb27d}.cls-15{fill:#163560}.cls-16{fill:#739af0}.cls-17{fill:#5d81db}.cls-18{fill:#294a7f}.cls-20{fill:#f99746}.cls-27{fill:#d8a27d}.cls-29{fill:#c6916d}</style></defs><g id="Layer_2" data-name="Layer 2"><g id="_лой_1" data-name="‘лой_1"><path class="cls-1" d="M197 1525.17S-90.74 1167 169.29 887.1C485.26 547 147.35 353 394 126c201.8-185.67 442.77-152.1 906.7 8.95 358.71 124.52 500.61-212.1 863.14-40.26 237 112.32 63.85 457 199.62 683.84 158.07 264.17 158.07 607.34-45.34 746.61z"/><path class="cls-2" d="M2042.25 916.1s-28.8-33.6-1.78-54.94c0 0 19.74-11.95 35.84-11 0 0-22.81 38.25-15.43 42.05s22.34-44.45 22.34-44.45 44.92-4.35 59.37 2.6c0 0-38.4 31.42-30.32 33.29s49.57-29 49.57-29 41.81 7.11 39.58 32.62-16.64 33.38-23 32.7-43.37-14.82-44.17-9.63 21.48 22.14 37.1 22.93c0 0-29.48 32.51-49.07 23.13s-21.26-24.25-33.47-29.83-22.64-5.56-17.6.12 27.15 11.22 34.13 23.57 13.25 20.69-7 17.64-53.21-17.88-54.66-34.86z"/><path class="cls-2" d="M2180.87 888s-113.55-4.37-138.62 28.1c0 0-5.55 16.61-22.61 31.74l-2.66 7.25s19.67-20.75 26.71-22c0 0-11.01-40.24 137.18-45.09z"/><path class="cls-2" d="M2019.64 947.84s-24.38 18-26.07 50.23l4.42.4s7.79-33.31 21.86-46.33-.21-4.3-.21-4.3zM1941.55 873.85s45.82-25.65 24.44-60.47c0 0-17.11-21.38-35.43-26.88 0 0 9.77 51.92 0 53.14s-6.72-58.64-6.72-58.64-48.26-23.21-67.19-21.38c0 0 29.93 50.7 20.16 49.48s-43.37-52.53-43.37-52.53-49.44-9.16-57.44 20.16 4.88 44 12.21 45.81 54.37 1.22 53.15 7.33-33 15.88-50.7 10.38c0 0 19.55 48.26 45.2 45.82s33.6-18.33 49.48-19.55 27.48 3.05 19.54 7.33-34.81 1.4-47.64 12.31-23.21 17.62.61 22.51 66.58 1.83 75.13-16.5z"/><path class="cls-2" d="M1798.62 785.89s128.27 41.54 142.93 88c0 0-.61 20.77 12.22 44.59v9.16s-13.44-31.15-20.77-35.43c0-.04 28.71-40.35-134.38-106.32z"/><path class="cls-2" d="M1953.77 918.44s19.78 30 8.5 66.61l-5.08-1.37s4.94-40.28-5.41-60.53 1.99-4.71 1.99-4.71z"/><path class="cls-3" d="M2014.44 838.47s-60.39-33.82-32.21-79.72c0 0 22.55-28.18 46.7-35.42 0 0-12.88 68.44 0 70s8.86-77.3 8.86-77.3 63.61-30.6 88.57-28.18c0 0-39.46 66.83-26.57 65.22s57.21-69.2 57.21-69.2 65.22-12.08 75.69 26.57-6.45 58-16.11 60.39-71.66 1.61-70.05 9.66 43.48 20.94 66.83 13.69c0 0-25.77 63.61-59.58 60.39s-44.29-24.15-65.22-25.76-36.24 4-25.77 9.66 45.9 1.85 62.8 16.22 30.6 23.23-.8 29.67-87.77 2.42-99-21.74z"/><path class="cls-3" d="M2202.85 722.52s-169.09 54.75-188.41 116c0 0 .8 27.37-16.11 58.78v12.07s17.72-41.06 27.38-46.7c0-.05-37.84-53.19 177.14-140.15z"/><path class="cls-3" d="M1998.33 897.25s-26.07 39.6-11.21 87.8l6.71-1.8s-6.51-53.1 7.13-79.8-2.63-6.2-2.63-6.2z"/><path class="cls-3" d="M2012.4 1089.58a118.3 118.3 0 00118.3-118.3h-236.59a118.29 118.29 0 00118.29 118.3z"/><path class="cls-3" d="M2132.33 1095.6h-239.85a14.6 14.6 0 0114.59-14.6h210.66a14.6 14.6 0 0114.6 14.6z"/><path fill="#9fc1f4" d="M1890.22 971.28h243.17v3.63h-243.17z"/><path class="cls-5" d="M296.91 1522.06h415.47l-65.19-530.89H231.72l65.19 530.89z"/><path class="cls-2" d="M314.9 1522.06h415.47l-65.18-530.89H249.72l65.18 530.89z"/><path class="cls-3" d="M335.9 1494.57h366.73l-58.72-478.22H277.18l58.72 478.22z"/><path class="cls-2" d="M301.61 1270.04h379.82l-3.28-26.78H298.32l3.29 26.78z"/><path class="cls-6" d="M674.9 1070.28l-9.71-79.11h-79.11l88.82 79.11zM259.43 1070.28l-9.71-79.11h79.11l-69.4 79.11zM651.27 1522.13h79.11l-9.71-79.11-69.4 79.11zM394.02 1522.13h-79.11l-9.71-79.11 88.82 79.11z"/><path class="cls-5" d="M490.71 1522.08h296.35l-46.49-378.68H444.21l46.5 378.68z"/><path class="cls-2" d="M503.54 1522.08H799.9l-46.5-378.68H457.05l46.49 378.68z"/><path class="cls-3" d="M518.52 1502.47h261.59l-41.88-341.11H476.64l41.88 341.11z"/><path class="cls-2" d="M494.06 1342.31h270.93l-2.34-19.1H491.72l2.34 19.1z"/><path class="cls-6" d="M760.33 1199.83l-6.93-56.43h-56.42l63.35 56.43zM463.98 1199.83l-6.93-56.43h56.43l-49.5 56.43zM743.48 1522.13h56.43l-6.93-56.43-49.5 56.43zM559.98 1522.13h-56.43l-6.93-56.43 63.36 56.43z"/><rect x="491.01" y="178.85" width="202.96" height="196.9" rx="14.52" fill="#c0d8fb"/><rect class="cls-8" x="499.8" y="187.38" width="185.38" height="179.84" rx="13.26"/><path class="cls-9" d="M588.28 205.35a4.21 4.21 0 114.21 4.2 4.21 4.21 0 01-4.21-4.2zM622.21 211.29a4.21 4.21 0 111.63 5.72 4.19 4.19 0 01-1.63-5.72zM651.27 234.38a4.21 4.21 0 11-1.25 5.81 4.2 4.2 0 011.25-5.81zM665.67 270.12a4.21 4.21 0 11-4.21 4.2 4.2 4.2 0 014.21-4.2z"/><circle class="cls-9" cx="655.34" cy="314.57" r="4.2"/><circle class="cls-9" cx="628.94" cy="341.04" r="4.2"/><path class="cls-9" d="M588.28 351.71a4.21 4.21 0 114.21 4.2 4.2 4.2 0 01-4.21-4.2zM562.63 211.29A4.21 4.21 0 10561 217a4.2 4.2 0 001.63-5.71zM533.57 234.38a4.21 4.21 0 101.25 5.81 4.19 4.19 0 00-1.25-5.81zM519.17 270.12a4.21 4.21 0 104.21 4.2 4.2 4.2 0 00-4.21-4.2z"/><circle class="cls-9" cx="529.5" cy="314.57" r="4.2"/><circle class="cls-9" cx="555.9" cy="341.04" r="4.2"/><path class="cls-9" d="M591.35 274.32a4.21 4.21 0 114.21 4.21 4.21 4.21 0 01-4.21-4.21z"/><path class="cls-9" d="M594.98 221.8h1.15v52.52h-1.15z"/><path class="cls-9" transform="matrix(.79 -.62 .62 .79 -32.64 432.2)" d="M591.25 261.6h35.4v3.44h-35.4z"/><path class="cls-10" d="M1850.58 1102.37V1113c0 3.73 1.2 6.77 2.67 6.77h388.43c1.47 0 2.68-3 2.68-6.77v-10.64c0-3.72-1.21-6.77-2.68-6.77h-388.43c-1.47.01-2.67 3.06-2.67 6.78z"/><path d="M1850.58 1102.37V1113c0 3.73 1.1 6.77 2.45 6.77h308.37c1.35 0 2.46-3 2.46-6.77v-10.64c0-3.72-1.11-6.77-2.46-6.77H1853c-1.32.01-2.42 3.06-2.42 6.78z" fill="#bad4f4"/><path class="cls-2" transform="rotate(180 2086.765 1320.75)" d="M1948.89 1119.78h275.76v401.93h-275.76z"/><path class="cls-8" transform="rotate(180 2009.485 1320.75)" d="M1871.61 1119.78h275.76v401.93h-275.76z"/><path class="cls-9" d="M1886.42 1131.14h246.12v368.38h-246.12zm243.47 2.65h-240.81v363.07h240.81z"/><path class="cls-9" d="M1887.75 1253h243.46v2.66h-243.46zM1887.75 1377.24h243.46v2.66h-243.46zM1984.54 1154.89h45.17a4 4 0 004-4 4 4 0 00-4-4h-45.17a4 4 0 00-4 4 4 4 0 004 4zM1984.54 1276.39h45.17a4 4 0 004-4 4 4 0 00-4-4h-45.17a4 4 0 00-4 4 4 4 0 004 4zM1984.54 1403h45.17a4 4 0 004-4 4 4 0 00-4-4h-45.17a4 4 0 00-4 4 4 4 0 004 4z"/><path class="cls-10" transform="rotate(-9.12 2129.919 999.259)" d="M2124.71 944.15h9.31v109.78h-9.31z"/><path class="cls-6" d="M2117.6 925.76l-1.53 19.82 9.19-1.47-7.66-18.35z"/><path class="cls-10" transform="rotate(10.4 2200.4 1013.32)" d="M2169.28 944.11h9.31v109.78h-9.31z"/><path class="cls-6" d="M2187.46 926.03l-8.1 18.15 9.15 1.7-1.05-19.85z"/><path transform="rotate(10.5 2206.317 982.931)" fill="#87a6d8" d="M2201.57 927.97h9.31v109.78h-9.31z"/><path class="cls-6" d="M2219.75 909.88l-8.11 18.16 9.16 1.69-1.05-19.85z"/><path fill="#91b2e2" d="M2150.55 989.87h73.36v105.73h-73.36z"/><path class="cls-6" d="M2113.87 989.87h73.36v105.73h-73.36z"/><path class="cls-14" d="M1139.4 644.61s23.9-13.93 37.06-9.14 35.3 20.34 25.73 26.92-21.26.46-25.13 0-11.21 15.84-33.72 10.61-3.94-28.39-3.94-28.39z"/><path class="cls-15" d="M958.7 319.5s-41.55-32.5-86.42-19.72c0 0-17.43-27-48.45-12.51-43.47 20.33-12.36 66 10 56.38 0 0-.61 11.37-11.78 34.5s11.95 72.15 58.49 55.91 86.73-34.46 86.73-34.46 37.01-53.95-8.57-80.1z"/><path class="cls-16" d="M955.57 657.21a188.13 188.13 0 0019.26 29.13c15 18.74 38 40.4 67 44.67 13.84 2 27.37-.93 39.81-6.46 35.18-15.62 61.64-51.54 61.64-51.54 6.21-16.92-3.94-28.39-3.94-28.39s-71.06 16-77.82 12.6-46.54-99.29-54.43-114.46c-15.56-29.91-42.64-38.64-42.64-38.64z"/><path class="cls-17" d="M974.83 686.34c12.91 24.8 38 40.4 67 44.67 13.84 2 27.37-.93 39.81-6.46-1.37.18-36.52 4.52-50.52-20.54-14.29-25.56-29.74-66.16-51-52.63-9.12 5.84-8.71 20.36-5.29 34.96z"/><path class="cls-18" d="M690.49 1424.16S668.81 1444 673 1458s23.79 23.43 26.44 40.61 13.22 26.55 22.74 26.55h45.37s7-12.09-9.91-15.73-23.3-23.84-22.25-42.58-1.58-43.74-1.58-43.74l-36-8.33zM874 1434.58s-7.8 83.82 1.72 88.51l121.81-.25s0-14.06-19.57-17.19-53.93-14.58-59.75-40.09-44.21-30.98-44.21-30.98z"/><path class="cls-16" d="M976.24 760.49l-100-6.62-56.35-3.75s-6.34-40-9.18-58.22c-3.19-20.55-7.15-34.94-9.77-48.32a146.39 146.39 0 01-2.69-19.76c-1.82-30.71-18-23.14-18-23.14l51-101.37c75.55-18 133.21 4.81 133.21 4.81s19.81 35.23 32.78 86-21 170.37-21 170.37z"/><path class="cls-17" d="M891.79 750.8l-71.88-.68s-6.34-40-9.18-58.22c-3.19-20.55-7.15-34.94-9.77-48.32l-.08-2.54s18.66-26.39 29-23.16-8.3 51.69 7.31 69c11.31 12.6 51.14 23.36 54.6 63.92z"/><path d="M973.45 744.7s35.12 109.31 37.38 146.53-67.13 528.7-69.93 545.84c-2.63 16.17-22.7 26.47-22.7 26.47s-9.23 5.45-22.41 1.73c-18.28-5.16-24.06-11.34-24.06-11.34s-27.33-350.53-10.42-475.74 17.12-233.49 17.12-233.49z" fill="#ed7d2b"/><path class="cls-20" d="M824.66 741.44s-53.57 71.87-58.56 120.46-7.84 219.26-18.48 266.63-49.73 138.52-49.73 286.26c0 0 4.06 8.47 16.61 13a138 138 0 0014.61 4 23 23 0 0025.68-12.19c26.43-53.22 110.62-224.84 114.93-260.46 3.06-25.21 29.64-192.07 87.62-290 13.92-23.51-13.8-81-13.8-81z"/><path class="cls-14" d="M867.72 493.54c4.27-11 9.68-39.77 9.6-60.11l3.22.58 54 9.84s-1.22 15.63-1.26 30.36v.36c-.07 12.79 0 23.08-1.4 26.57-5.16 12.27-67.7 1.52-64.16-7.6z"/><path d="M934.53 443.85s-1.23 15.63-1.27 30.36c-30.21-.79-46.18-26.14-52.72-40.2z" fill="#e8945b"/><path class="cls-14" d="M944.61 459.91s-71.48 1.18-71.53-43.35-9.3-74.36 36.33-77 54.53 14.34 58.16 29.2-4.36 89.7-22.96 91.15z"/><path class="cls-15" d="M942 338.48s-19.57 52.23-49.61 60-43.06-.33-43.06-.33 23-18.3 27.82-50.25c-.03-.04 50.06-34.29 64.85-9.42z"/><path class="cls-15" d="M937.12 342.72s14.51 5.42 20.48 16a71.93 71.93 0 019.67 40.87S982 364.1 965.44 344c-17.57-21.28-28.32-1.28-28.32-1.28z"/><path d="M930.65 433.48s1.24 5.25 14.29 4.44c0 0 11-.68 10.62-6.45 0 0-10.62-4.1-24.91 2.01z" fill="#fff"/><path class="cls-14" d="M844 747.93s59.09-19.74 82.81 15.55c5 7.49-32 11.2-51.84 8.58-4.72-.63-38.18-7.35-38.18-7.35z"/><path class="cls-16" d="M831.29 499.31s-40.51 7.32-68.21 60.19c-23.73 45.28-58.33 117.32-58.33 130.67s20.61 54.53 131.32 78.2c0 0 11.45-12 10.76-21.57 0 0-69.11-59.36-68.92-66.3.35-13.12 11.33-30.45 72-91.14 16.5-16.5-18.62-90.05-18.62-90.05z"/><path d="M1044.51 745.62c-38.76-68.61-187.31-61-191.58-43.16s33.74 35.8 24.35 51.95c-16.51 28.39-60.68 8.68-72.95 32.61s73.95 125 153.67 119 125.28-91.79 86.51-160.4zm-134.36 15c2.67 5.65-.89 12.93-8 16.27s-15 1.46-17.62-4.19.9-12.94 8-16.27 14.95-1.43 17.62 4.21z" fill="#ffe3ca"/><path d="M870.49 848.6c-3-3.46-6-7.6-5.45-12.15.54-4.39 4.42-7.79 8.65-9.13s8.77-1 13.18-.67l8.1.61a11.43 11.43 0 015 1.17 11 11 0 013.26 3.59 16.18 16.18 0 012.15 4.17c4.69 16.04-26.82 21.81-34.89 12.41z" fill="#233862"/><path class="cls-6" d="M1029.33 817.23c-4.36 1.37-9.36 2.5-13.31.2s-5.42-7.14-5-11.55 2.54-8.45 4.59-12.38c1.26-2.4 2.51-4.8 3.77-7.19a11.32 11.32 0 013.05-4.15 10.79 10.79 0 014.59-1.58 16 16 0 014.68-.33c16.6 2.04 9.42 33.26-2.37 36.98z"/><path d="M924.21 856.51c3.46-2.65 8-4.1 12.26-3.15 2.22.49 4.25 1.59 6.41 2.31 3.61 1.2 7.72 1.39 10.67 3.79 3.49 2.85 4.21 7.91 3.89 12.41a21.73 21.73 0 01-2 8.11c-3.8 7.56-13.84 10.46-22 8a24.64 24.64 0 01-15.7-15.09c-2.49-6.7.84-12.08 6.47-16.38z" fill="#f78248"/><path class="cls-16" d="M993.47 741.74a12 12 0 019.68-2.48c1.74.39 3.34 1.26 5 1.82 2.85.95 6.09 1.1 8.42 3 2.75 2.25 3.32 6.24 3.07 9.79a16.74 16.74 0 01-1.57 6.39c-3 6-10.91 8.25-17.3 6.35a19.43 19.43 0 01-12.38-11.9c-1.98-5.33.61-9.58 5.08-12.97z"/><path class="cls-1" d="M944.21 719.67a12 12 0 019.68-2.48c1.74.39 3.34 1.26 5 1.82 2.85 1 6.09 1.1 8.42 3 2.76 2.25 3.32 6.24 3.07 9.79a16.91 16.91 0 01-1.56 6.39c-3 6-10.91 8.25-17.31 6.35a19.43 19.43 0 01-12.38-11.9c-1.98-5.33.65-9.58 5.08-12.97z"/><path class="cls-20" d="M982.12 865.59c-3-3.49-3-8.74-1.28-13s5-7.6 8.4-10.68a28.56 28.56 0 017.77-5.49 11.4 11.4 0 019.27-.22c2.87 1.37 4.89 4.71 4.13 7.8-1 4.21-5.69 7.38-7.68 11.23-1.91 3.67-1.88 8-3.68 11.62-1.62 3.22-3.27 5.27-7.2 5.77-5.85.77-6.43-3.11-9.73-7.03z"/><path class="cls-14" d="M861.51 743.9s20.64-4.32 24.53-3.76c6.34.92 19.74 3.59 21.25 4.66s-7.93 7-15.5 6c-5.14-.71-15.94 6.66-19.67 9.1s-10.61-16-10.61-16z"/><path class="cls-20" d="M1216.79 680.76l-10.9 11.85L1057.05 553a3.54 3.54 0 01-.18-5 3.09 3.09 0 014.28-.26z"/><path class="cls-16" d="M1205.89 692.61l10.9-11.85-13.85-11.83-9.67 11.84 12.62 11.84z"/><path class="cls-15" d="M1216.79 680.76s8.47-5 23.22 5.17 25.3 6.68 25.3 6.68-12.65 11.94-27.76 13-26.44-.34-31.66-13z"/><path class="cls-14" d="M1154.33 654.25l1.94-.24c6.93-.85 30.25-3.74 34.15-4.58 4.59-1-2.74 6.93-10.57 9.17s-2.85 8.57-11.49 7.78-14.03-12.13-14.03-12.13z"/><path fill="#916140" d="M1692.71 1018.71h-500.87l78.58-640.01h500.87l-78.58 640.01z"/><path class="cls-27" d="M1715.23 1018.71h-500.87l78.58-640.01h500.87l-78.58 640.01z"/><path fill="#e5bd9e" d="M1689.92 985.57h-442.11l70.79-576.51h442.11l-70.79 576.51z"/><path class="cls-27" d="M1731.25 714.89h-457.89l3.97-32.29h457.88l-3.96 32.29z"/><path class="cls-29" d="M1281.23 474.07l11.71-95.37h95.37l-107.08 95.37zM1782.1 474.07l11.71-95.37h-95.37l83.66 95.37zM1309.72 1018.79h-95.37l11.71-95.37 83.66 95.37zM1619.85 1018.79h95.37l11.71-95.37-107.08 95.37z"/><path class="cls-15" d="M1275.22 1521.71a5.76 5.76 0 01-5.63-7l199.05-922.27a10.45 10.45 0 0110.22-8.25h6.23a7.74 7.74 0 017.55 9.42L1282 1516.31a7 7 0 01-6.78 5.4zM1570.29 1523.14a6.4 6.4 0 01-6.28-6.43l3.26-922.91a7.88 7.88 0 018-7.8l5.37.06a8.11 8.11 0 018 8.23l-13 923.75a5.17 5.17 0 01-5.35 5.1z"/><path class="cls-15" d="M1351.8 1163.82h220.27v16.78H1351.8z"/><path class="cls-15" transform="rotate(-82.93 1514.99 740.09)" d="M1079.55 731.7h870.84v16.78h-870.84z"/><path class="cls-15" d="M1577.54 656.85l-121.4-.05 8.41-16.78 113 .05-.01 16.78zM1746.82 1517.52l-231.29-784.08a5.86 5.86 0 01.17-3.79l4.66-11.91a5.85 5.85 0 0111.07.53l226.62 796a5.84 5.84 0 01-5.62 7.45 5.84 5.84 0 01-5.61-4.2z"/><path class="cls-15" d="M1684.73 1031.85h-484.58a4.38 4.38 0 01-4.38-4.38 12.81 12.81 0 0112.81-12.82h481.08a6 6 0 016 6v.27a10.93 10.93 0 01-10.93 10.93zM1516.85 366h90.21v12.71h-90.21z"/><rect y="1521.71" width="2521.55" height="6.92" rx="2.91" fill="#2e3552"/></g></g></svg>