<?xml version="1.0" encoding="utf-8"?>
<!-- Generator: Adobe Illustrator 16.0.0, SVG Export Plug-In . SVG Version: 6.00 Build 0)  -->
<!DOCTYPE svg PUBLIC "-//W3C//DTD SVG 1.1//EN" "http://www.w3.org/Graphics/SVG/1.1/DTD/svg11.dtd">
<svg version="1.1" id="Capa_1" xmlns="http://www.w3.org/2000/svg" xmlns:xlink="http://www.w3.org/1999/xlink" x="0px" y="0px"
	 width="512px" height="512px" viewBox="0 0 512 512" enable-background="new 0 0 512 512" xml:space="preserve">
<g>
	<path fill="none" stroke="#48E1FF" stroke-width="16" stroke-linecap="round" stroke-linejoin="round" stroke-miterlimit="10" d="
		M492.99,102.279l-16.757-19.154c-1.849,6.762-5.107,13.13-9.794,18.487l-21.044,24.054c12.657,8.934,28.07,10.747,41.841,5.419
		C497.891,126.965,500.942,111.371,492.99,102.279z"/>
	<g>
		<path fill="#48E1FF" d="M401.54,16c6.315,0,12.254,2.459,16.72,6.926l42.525,42.525c5.583,5.582,7.96,13.472,6.509,21.12
			l-28.082,33.89l-73.806,73.806c-4.465,4.466-10.402,6.925-16.719,6.925c-6.315,0-12.252-2.459-16.718-6.924l-42.525-42.525
			c-9.219-9.219-9.219-24.22,0-33.439l95.378-95.378C389.287,18.459,395.225,16,401.54,16 M401.54,0
			c-10.146,0-20.292,3.871-28.032,11.612l-95.377,95.378c-15.482,15.482-15.482,40.583,0,56.066l42.525,42.525
			c7.739,7.74,17.887,11.611,28.031,11.611c10.147,0,20.292-3.87,28.033-11.612l74.334-74.334
			c30.838-37.216,30.838-37.216,30.838-37.216c4.26-13.627,1.002-29.097-9.794-39.892l-42.525-42.525
			C421.832,3.871,411.686,0,401.54,0L401.54,0z"/>
	</g>
</g>
<g>
	<path fill="#41AEFF" d="M291.801,80.797c36.162,0,65.582,29.42,65.582,65.582s-29.42,65.583-65.582,65.583
		c-36.163,0-65.583-29.42-65.583-65.583S255.638,80.797,291.801,80.797 M291.801,68.797c-42.848,0-77.583,34.734-77.583,77.582
		s34.735,77.583,77.583,77.583c42.848,0,77.582-34.735,77.582-77.583S334.648,68.797,291.801,68.797L291.801,68.797z"/>
</g>
<g>
	<path fill="#FFE090" d="M79.23,52.059c1.061,0,2.111,0.239,3.121,0.711l26.475,12.37c5.187,2.423,10.954,3.704,16.679,3.704
		c1.61,0,3.236-0.1,4.832-0.297l29.001-3.583c0.325-0.04,0.65-0.061,0.965-0.061c2.851,0,4.671,1.578,5.503,2.519
		c0.821,0.929,2.146,2.919,1.791,5.8l-3.583,29.001c-0.91,7.357,0.268,14.795,3.407,21.513l12.37,26.476
		c1.332,2.85,0.502,5.294-0.111,6.497c-0.613,1.203-2.103,3.311-5.19,3.908l-28.692,5.555c-7.278,1.41-13.987,4.829-19.404,9.887
		l-21.356,19.946c-1.767,1.65-3.704,1.996-5.018,1.996c-1.033,0-4.553-0.275-6.516-3.823l-14.148-25.569
		c-3.589-6.486-8.914-11.812-15.399-15.401l-25.57-14.148c-2.752-1.523-3.517-3.987-3.728-5.321
		c-0.211-1.333-0.245-3.914,1.902-6.213l19.943-21.355c5.061-5.417,8.481-12.129,9.89-19.407l5.554-28.689
		C72.71,54.125,76.189,52.059,79.23,52.059 M79.23,36.059c-10.766,0-20.775,7.519-22.993,18.972l-5.554,28.69
		c-0.835,4.317-2.871,8.313-5.873,11.526l-19.945,21.357c-10.398,11.134-7.557,29.078,5.773,36.454l25.57,14.148
		c3.847,2.129,7.017,5.3,9.146,9.148l14.148,25.569c4.35,7.862,12.378,12.076,20.516,12.076c5.66,0,11.371-2.037,15.938-6.302
		l21.357-19.947c3.214-3.001,7.208-5.036,11.526-5.873l28.69-5.555c14.957-2.896,23.206-19.083,16.756-32.886l-12.371-26.476
		c-1.861-3.984-2.563-8.412-2.023-12.776l3.583-29.002c1.745-14.133-9.366-26.279-23.171-26.28c-0.964,0-1.94,0.059-2.927,0.181
		l-29.002,3.583c-0.955,0.118-1.914,0.177-2.87,0.177c-3.412,0-6.795-0.746-9.907-2.2l-26.474-12.37
		C85.89,36.764,82.523,36.059,79.23,36.059L79.23,36.059z"/>
</g>
<g>
	<path fill="#FCA1C0" d="M230.715,105.016c6.94,0,13.402,2.916,18.195,8.209c5.234,5.781,7.785,13.624,7,21.519
		c-1.616,16.229-12.355,30.48-21.08,39.579c-9.974,10.4-23.611,20.563-36.479,27.187c-0.581,0.299-1.202,0.451-1.847,0.451
		c-0.644,0-1.265-0.151-1.846-0.451c-12.869-6.624-26.506-16.787-36.48-27.187c-8.725-9.098-19.464-23.35-21.08-39.579
		c-0.786-7.893,1.766-15.735,7-21.517c4.794-5.295,11.256-8.211,18.195-8.211c0.126,0,0.252,0.001,0.38,0.003
		c6.827,0.102,13.2,2.885,17.946,7.839c4.149,4.331,9.888,6.78,15.886,6.78s11.736-2.449,15.886-6.78
		c4.746-4.954,11.119-7.738,17.942-7.839C230.459,105.017,230.588,105.016,230.715,105.016 M230.715,83.016
		c-0.234,0-0.472,0.002-0.707,0.005c-13.17,0.196-25.03,5.771-33.504,14.617C188.029,88.793,176.17,83.217,163,83.021
		c-0.237-0.003-0.471-0.005-0.707-0.005c-28.424,0.002-49.914,25.507-47.086,53.907c4.047,40.654,45.074,71.635,69.383,84.147
		c3.743,1.926,7.829,2.89,11.915,2.89c4.086,0,8.172-0.963,11.915-2.89c24.308-12.512,65.336-43.494,69.383-84.147
		C280.629,108.521,259.142,83.016,230.715,83.016L230.715,83.016z"/>
</g>
<linearGradient id="SVGID_1_" gradientUnits="userSpaceOnUse" x1="-67.5928" y1="246.7051" x2="292.5833" y2="246.7051" gradientTransform="matrix(1.0199 0 0 -1.0199 121.0897 603.758)">
	<stop  offset="0" style="stop-color:#4BA7E6"/>
	<stop  offset="1" style="stop-color:#94CCF0"/>
</linearGradient>
<path fill="url(#SVGID_1_)" d="M299.871,456.721c0-5.867,1.9-11.576,5.418-16.272L463.87,228.737H30.428L189.01,440.449
	c3.518,4.696,5.418,10.404,5.418,16.272l52.722,18.816L299.871,456.721z"/>
<linearGradient id="SVGID_2_" gradientUnits="userSpaceOnUse" x1="123.5967" y1="302.7217" x2="123.5967" y2="431.7987" gradientTransform="matrix(1.0199 0 0 -1.0199 121.0897 603.758)">
	<stop  offset="0" style="stop-color:#F4D84A"/>
	<stop  offset="1" style="stop-color:#F9EA9D"/>
</linearGradient>
<path fill="url(#SVGID_2_)" d="M247.149,283.497c-78.842,0-156.811-12.238-203.486-23.692c-24.496-6.011-39.483-30.742-33.472-55.24
	c6.012-24.497,30.734-39.485,55.24-33.473c39.592,9.714,110.942,21.059,181.718,21.059c70.778,0,142.126-11.345,181.717-21.059
	c24.505-6.014,49.23,8.976,55.24,33.473c6.013,24.498-8.975,49.229-33.472,55.24C403.96,271.259,325.993,283.497,247.149,283.497
	L247.149,283.497z"/>
<linearGradient id="SVGID_3_" gradientUnits="userSpaceOnUse" x1="38.7524" y1="117.0654" x2="159.5169" y2="117.0654" gradientTransform="matrix(1.0199 0 0 -1.0199 121.0897 603.758)">
	<stop  offset="0" style="stop-color:#68D0E8"/>
	<stop  offset="1" style="stop-color:#A7E7F5"/>
</linearGradient>
<path fill="url(#SVGID_3_)" d="M194.427,484.859c0,14.989,12.151,27.141,27.141,27.141h51.16c14.99,0,27.141-12.151,27.141-27.141
	v-28.139H194.427V484.859z"/>
<rect x="46.306" y="-130.5" fill="#FCA1C0" width="45.842" height="45.842"/>
<rect x="142.577" y="-130.5" fill="#FFE090" width="45.842" height="45.842"/>
<rect x="274.738" y="-130.5" fill="#41AEFF" width="45.842" height="45.842"/>
<rect x="368.744" y="-130.5" fill="#48E1FF" width="45.842" height="45.842"/>
</svg>
