<?xml version="1.0" encoding="utf-8"?>
<!-- Generator: Adobe Illustrator 25.1.0, SVG Export Plug-In . SVG Version: 6.00 Build 0)  -->
<svg version="1.1" id="Capa_1" xmlns="http://www.w3.org/2000/svg" xmlns:xlink="http://www.w3.org/1999/xlink" x="0px" y="0px"
	 viewBox="0 0 294 56" style="enable-background:new 0 0 294 56;" xml:space="preserve">
<style type="text/css">
	.st0{fill:url(#SVGID_1_);}
	.st1{fill:#1D9CDF;}
	.st2{fill:#FFFFFF;}
	.st3{fill:#48E1FF;}
	.st4{fill:url(#SVGID_2_);}
	.st5{fill:url(#SVGID_3_);}
	.st6{fill:url(#SVGID_4_);}
	.st7{fill:url(#SVGID_5_);}
	.st8{fill:url(#SVGID_6_);}
	.st9{fill:url(#SVGID_7_);}
	.st10{fill:url(#SVGID_8_);}
	.st11{fill:url(#SVGID_9_);}
	.st12{fill:url(#SVGID_10_);}
	.st13{fill:url(#SVGID_11_);}
	.st14{fill:url(#SVGID_12_);}
</style>
<g>
	<linearGradient id="SVGID_1_" gradientUnits="userSpaceOnUse" x1="45.9388" y1="40.6325" x2="5.3409" y2="25.5673">
		<stop  offset="0" style="stop-color:#41AEFF"/>
		<stop  offset="1" style="stop-color:#48E1FF"/>
	</linearGradient>
	<path class="st0" d="M26.31,10.92C17.99,5.05,9.8,7.29,8.36,19.68c-0.8,6.43-1.88,12.44-3.45,17.57c-3.07,9.67,4.16,17,15.22,12.42
		c5.91-2.07,11.83-4.14,17.78-6.15c11.11-4.52,12.72-12.41,2.83-20.93C35.54,18.02,30.76,14.2,26.31,10.92z"/>
	<g>
		<path class="st1" d="M23.76,24.3c0.6,0.6,1.23,0.78,1.89,0.55c0.57-0.2,0.88-0.72,0.92-1.57c0.04-0.84-0.11-1.74-0.44-2.68
			c-0.35-1.01-0.82-1.85-1.41-2.52c-0.59-0.67-1.15-0.91-1.69-0.72c-0.45,0.16-0.77,0.49-0.95,0.99c-0.18,0.5-0.24,1.06-0.18,1.67
			c0.06,0.61,0.21,1.25,0.44,1.91C22.69,22.91,23.16,23.7,23.76,24.3z"/>
		<path class="st1" d="M16.93,20.7c-0.6-0.6-1.23-0.78-1.89-0.55c-0.57,0.2-0.88,0.72-0.92,1.57c-0.04,0.84,0.11,1.74,0.44,2.68
			c0.35,1.01,0.82,1.85,1.41,2.52c0.59,0.67,1.15,0.91,1.69,0.72c0.45-0.16,0.77-0.49,0.95-0.99c0.18-0.5,0.24-1.06,0.18-1.67
			c-0.06-0.61-0.21-1.25-0.44-1.91C18.01,22.09,17.54,21.29,16.93,20.7z"/>
	</g>
	<path class="st2" d="M28.04,27.54c1.99-1.84,4.2-0.28,4.94,1.83c1.6,4.57-0.55,7.88-6.44,9.94c-1.29,0.45-2.49,0.75-3.59,0.88
		c-1.1,0.14-2.15,0.1-3.14-0.12c-0.99-0.22-1.87-0.7-2.63-1.46c-0.76-0.76-1.37-1.79-1.82-3.08c-0.74-2.11-0.11-4.51,2.77-4.52
		S26.24,29.21,28.04,27.54z"/>
</g>
<g>
	<linearGradient id="SVGID_2_" gradientUnits="userSpaceOnUse" x1="49.0335" y1="28.2007" x2="277.093" y2="28.2007">
		<stop  offset="0" style="stop-color:#FCA1C0"/>
		<stop  offset="1" style="stop-color:#FFE090"/>
	</linearGradient>
	<path class="st4" d="M43.99,11.24c0.99-0.73,2.39-1.1,4.2-1.1c3.79,0,5.69,1.32,5.69,3.97c0,1.46-0.49,2.49-1.46,3.08
		c-0.97,0.59-2.38,0.89-4.23,0.89c-1.64,0-2.99-0.31-4.07-0.94c-1.08-0.63-1.62-1.64-1.62-3.03C42.51,12.93,43,11.97,43.99,11.24z
		 M53.83,27.1c0-2.19-0.52-3.7-1.57-4.51c-1.04-0.82-2.51-1.23-4.38-1.23c-1.6,0-2.88,0.54-3.84,1.62
		c-0.96,1.08-1.44,2.51-1.44,4.28V40.1c0,2.19,0.37,3.77,1.12,4.72c0.75,0.96,2.15,1.44,4.2,1.44c2.19,0,3.72-0.41,4.59-1.23
		c0.87-0.82,1.3-2.27,1.3-4.36V27.1z"/>
	<linearGradient id="SVGID_3_" gradientUnits="userSpaceOnUse" x1="49.0335" y1="28.3834" x2="277.093" y2="28.3834">
		<stop  offset="0" style="stop-color:#FCA1C0"/>
		<stop  offset="1" style="stop-color:#FFE090"/>
	</linearGradient>
	<path class="st5" d="M70.01,38.38c0,2.82-0.47,4.84-1.41,6.05c-0.94,1.22-2.38,1.83-4.33,1.83c-1.95,0-3.38-0.55-4.28-1.64
		c-0.91-1.1-1.36-3.04-1.36-5.82l-0.1-22.03c0-0.9,0.1-1.7,0.29-2.4c0.19-0.7,0.45-1.29,0.78-1.77c0.33-0.49,0.74-0.89,1.23-1.2
		c0.49-0.31,1.02-0.54,1.59-0.68c0.57-0.14,1.19-0.21,1.85-0.21c1.91,0,3.35,0.38,4.31,1.15c0.96,0.77,1.44,2.31,1.44,4.65V38.38z"
		/>
	<linearGradient id="SVGID_4_" gradientUnits="userSpaceOnUse" x1="49.0335" y1="28.5867" x2="277.093" y2="28.5867">
		<stop  offset="0" style="stop-color:#FCA1C0"/>
		<stop  offset="1" style="stop-color:#FFE090"/>
	</linearGradient>
	<path class="st6" d="M86.24,35.25c0,1.98,0.76,2.98,2.3,2.98c0.52,0,0.98-0.16,1.38-0.5c0.4-0.33,0.7-0.79,0.91-1.38
		c0.21-0.59,0.31-1.27,0.31-2.04v-6.99c0-1.18,0.21-2.22,0.63-3.11s1.03-1.57,1.83-2.06c0.8-0.49,1.74-0.73,2.82-0.73
		c1.88,0,3.34,0.41,4.38,1.23c1.04,0.82,1.57,2.32,1.57,4.51v13.57c0,2.12-0.44,3.58-1.3,4.38c-0.87,0.8-2.4,1.2-4.59,1.2
		c-0.94,0-1.74-0.1-2.4-0.29c-0.66-0.19-1.19-0.48-1.59-0.86c-0.4-0.38-0.7-0.89-0.91-1.51c-1.43,0.94-2.93,1.6-4.51,1.98
		c-1.58,0.38-3.35,0.57-5.3,0.57c-2.47,0-4.25-0.97-5.32-2.9c-1.08-1.93-1.62-5.11-1.62-9.53c0-2.19,0.05-3.97,0.16-5.35
		c0.1-1.37,0.27-2.56,0.5-3.55c0.23-0.99,0.57-1.73,1.04-2.22c0.47-0.49,1.03-0.83,1.67-1.04c0.64-0.21,1.49-0.31,2.53-0.31
		c1.95,0,3.35,0.37,4.2,1.1c0.85,0.73,1.28,1.83,1.28,3.29L86.24,35.25z M92.26,11.37c0.58-0.34,1.2-0.51,1.89-0.51
		c0.92,0,1.66,0.41,2.22,1.22s0.84,1.67,0.84,2.59c0,1.31-0.81,2.28-2.43,2.9l-4.79,1.61c-0.65,0.21-1.26,0.31-1.81,0.31
		c-0.52,0-0.99-0.11-1.39-0.31s-0.71-0.49-0.92-0.84c-0.21-0.35-0.31-0.75-0.31-1.2c0-0.94,0.52-1.78,1.57-2.51l0.63-0.43
		L92.26,11.37z"/>
	<linearGradient id="SVGID_5_" gradientUnits="userSpaceOnUse" x1="49.0335" y1="33.8114" x2="277.093" y2="33.8114">
		<stop  offset="0" style="stop-color:#FCA1C0"/>
		<stop  offset="1" style="stop-color:#FFE090"/>
	</linearGradient>
	<path class="st7" d="M119.7,21c3.24,0,5.93,0.66,8.09,1.98c2.16,1.32,3.24,2.77,3.24,4.33c0,0.45-0.19,0.87-0.57,1.25
		c-0.38,0.38-0.87,0.57-1.46,0.57c-0.52,0-1.1-0.18-1.72-0.55c-0.63-0.37-1.22-0.76-1.77-1.17c-0.56-0.42-1.29-0.8-2.19-1.15
		c-0.91-0.35-1.86-0.52-2.87-0.52c-1.36,0-2.04,0.42-2.04,1.25c0,0.59,0.35,1.06,1.04,1.41c0.7,0.35,1.71,0.71,3.05,1.1
		c1.34,0.38,2.36,0.75,3.05,1.1c2.61,1.01,4.4,2.1,5.38,3.26c0.97,1.17,1.46,2.71,1.46,4.62c0,0.94-0.26,1.87-0.78,2.79
		c-0.52,0.92-1.3,1.79-2.35,2.61c-1.04,0.82-2.46,1.48-4.25,1.98c-1.79,0.5-3.84,0.76-6.13,0.76c-4.49,0-7.85-1.03-10.07-3.08
		c-1.08-1.01-1.62-2.05-1.62-3.13c0-0.66,0.22-1.18,0.65-1.57c0.43-0.38,1.05-0.57,1.85-0.57c0.8,0,2.02,0.39,3.65,1.17
		c1.64,0.78,3.15,1.17,4.54,1.17c1.91,0,2.87-0.47,2.87-1.41c0-0.49-0.5-0.88-1.51-1.17c-1.01-0.3-2.33-0.65-3.97-1.07
		c-1.64-0.42-2.94-0.94-3.91-1.57c-1.53-0.66-2.6-1.49-3.21-2.48c-0.61-0.99-0.91-2.2-0.91-3.63c0-2.44,1.16-4.43,3.47-5.98
		C113.01,21.77,116.01,21,119.7,21z"/>
	<linearGradient id="SVGID_6_" gradientUnits="userSpaceOnUse" x1="49.0335" y1="29.4533" x2="277.093" y2="29.4533">
		<stop  offset="0" style="stop-color:#FCA1C0"/>
		<stop  offset="1" style="stop-color:#FFE090"/>
	</linearGradient>
	<path class="st8" d="M138.38,35.09v-6.16c-0.87-0.03-1.57-0.18-2.09-0.44c-0.52-0.26-0.9-0.6-1.12-1.02
		c-0.23-0.42-0.34-0.94-0.34-1.57c0-1.98,1.2-3.06,3.6-3.24v-4.85c0-1.32,0.96-2.51,2.87-3.58c1.91-1.06,3.81-1.59,5.69-1.59
		c1.15,0,1.9,0.33,2.24,0.99c0.35,0.66,0.52,1.65,0.52,2.97l0.05,6h1.41c1.91,0,3.23,0.25,3.94,0.76c0.71,0.5,1.07,1.42,1.07,2.74
		c0,0.56-0.1,1.03-0.31,1.41c-0.21,0.38-0.55,0.68-1.02,0.89c-0.47,0.21-1.04,0.36-1.7,0.44c-0.66,0.09-1.48,0.13-2.45,0.13h-0.94
		v5.74c0,0.56,0.03,1.02,0.08,1.38c0.05,0.37,0.13,0.65,0.23,0.86c0.1,0.21,0.25,0.35,0.44,0.42c0.19,0.07,0.43,0.1,0.7,0.1
		c0.42,0,0.76-0.15,1.04-0.44c0.28-0.3,0.5-0.63,0.65-0.99c0.16-0.37,0.37-0.7,0.63-0.99c0.26-0.3,0.57-0.44,0.91-0.44
		c0.8,0,1.42,0.19,1.85,0.57c0.43,0.38,0.65,0.85,0.65,1.41c0,0.94-0.18,1.95-0.55,3.03c-0.37,1.08-0.9,2.12-1.59,3.13
		c-0.7,1.01-1.66,1.84-2.9,2.51c-1.24,0.66-2.62,0.99-4.15,0.99c-3.44,0-5.88-0.87-7.31-2.61C139.1,41.91,138.38,39.06,138.38,35.09
		z"/>
	<linearGradient id="SVGID_7_" gradientUnits="userSpaceOnUse" x1="49.0335" y1="33.8113" x2="277.093" y2="33.8113">
		<stop  offset="0" style="stop-color:#FCA1C0"/>
		<stop  offset="1" style="stop-color:#FFE090"/>
	</linearGradient>
	<path class="st9" d="M173.09,40.67c0,2.09-0.44,3.54-1.3,4.36c-0.87,0.82-2.42,1.23-4.65,1.23c-2.05,0-3.44-0.48-4.18-1.44
		c-0.73-0.96-1.1-2.53-1.1-4.72V27.26c0-1.18,0.21-2.22,0.63-3.11c0.42-0.89,1.03-1.57,1.83-2.06c0.8-0.49,1.74-0.73,2.82-0.73
		c2.64,0,4.38,0.77,5.22,2.3c2.02-1.53,3.97-2.3,5.85-2.3c3.65,0,5.48,1.74,5.48,5.22c0,1.39-0.4,2.52-1.2,3.39
		c-0.8,0.87-1.84,1.3-3.13,1.3c-0.77,0-1.38-0.16-1.85-0.47c-0.47-0.31-0.91-0.63-1.3-0.94c-0.4-0.31-0.86-0.47-1.38-0.47
		c-0.77,0-1.34,0.26-1.72,0.78V40.67z"/>
	<linearGradient id="SVGID_8_" gradientUnits="userSpaceOnUse" x1="49.0335" y1="33.7853" x2="277.093" y2="33.7853">
		<stop  offset="0" style="stop-color:#FCA1C0"/>
		<stop  offset="1" style="stop-color:#FFE090"/>
	</linearGradient>
	<path class="st10" d="M195.38,46.57c-2.75,0-5.03-1.12-6.84-3.37c-1.81-2.24-2.71-5.31-2.71-9.21c0-3.97,0.9-7.12,2.69-9.47
		c1.79-2.35,4.08-3.52,6.86-3.52c2.82,0,5.43,0.99,7.83,2.97c0.94-1.74,2.45-2.61,4.54-2.61c1.88,0,3.34,0.41,4.38,1.23
		c1.04,0.82,1.57,2.32,1.57,4.51v13.57c0,2.09-0.44,3.54-1.3,4.36c-0.87,0.82-2.4,1.23-4.59,1.23c-2.3,0-3.81-0.64-4.54-1.93
		C201.03,45.82,198.4,46.57,195.38,46.57z M202.47,28.98c-0.59-1.01-1.36-1.51-2.3-1.51c-0.91,0-1.64,0.66-2.19,1.98
		c-0.56,1.32-0.84,2.84-0.84,4.54c0,1.6,0.26,3.03,0.78,4.28s1.25,1.88,2.19,1.88c0.97,0,1.76-0.47,2.35-1.41V28.98z"/>
</g>
<linearGradient id="SVGID_9_" gradientUnits="userSpaceOnUse" x1="49.0335" y1="33.8113" x2="277.093" y2="33.8113">
	<stop  offset="0" style="stop-color:#FCA1C0"/>
	<stop  offset="1" style="stop-color:#FFE090"/>
</linearGradient>
<path class="st11" d="M249.55,32.48c0-1.95-0.78-2.92-2.35-2.92c-0.7,0-1.22,0.4-1.57,1.2c-0.35,0.8-0.52,1.81-0.52,3.03
	c0,1.84-0.03,3.38-0.08,4.59c-0.05,1.22-0.17,2.31-0.34,3.29c-0.17,0.97-0.38,1.74-0.63,2.3c-0.24,0.56-0.57,1.02-0.99,1.38
	c-0.42,0.37-0.89,0.61-1.41,0.73c-0.52,0.12-1.18,0.18-1.98,0.18c-1.22,0-2.2-0.17-2.95-0.52c-0.75-0.35-1.28-0.84-1.59-1.46
	c-0.31-0.63-0.47-1.41-0.47-2.35v-9.45c0-1.95-0.78-2.92-2.35-2.92c-0.63,0-1.14,0.36-1.54,1.07c-0.4,0.71-0.6,1.64-0.6,2.79v7.25
	c0,2.09-0.44,3.54-1.3,4.36c-0.87,0.82-2.4,1.23-4.59,1.23c-2.05,0-3.45-0.48-4.2-1.44c-0.75-0.96-1.12-2.53-1.12-4.72V27.26
	c0-1.77,0.48-3.2,1.44-4.28c0.96-1.08,2.24-1.62,3.84-1.62c2.85,0,4.66,0.92,5.43,2.77c1.32-0.97,2.62-1.65,3.89-2.04
	c1.27-0.38,2.76-0.57,4.46-0.57c2.57,0,4.44,1.11,5.58,3.34c0.17-0.14,0.35-0.28,0.52-0.42c2.68-1.95,5.97-2.92,9.86-2.92
	c2.47,0,4.24,0.94,5.32,2.82c1.08,1.88,1.62,5.03,1.62,9.45c0,1.84-0.03,3.38-0.08,4.59c-0.05,1.22-0.17,2.31-0.34,3.29
	c-0.17,0.97-0.39,1.74-0.65,2.3c-0.26,0.56-0.63,1.02-1.1,1.38c-0.47,0.37-0.99,0.61-1.57,0.73c-0.57,0.12-1.3,0.18-2.17,0.18
	c-1.32,0-2.39-0.17-3.21-0.52c-0.82-0.35-1.4-0.84-1.75-1.46c-0.35-0.63-0.52-1.41-0.52-2.35V32.48z"/>
<linearGradient id="SVGID_10_" gradientUnits="userSpaceOnUse" x1="49.0335" y1="33.7853" x2="277.093" y2="33.7853">
	<stop  offset="0" style="stop-color:#FCA1C0"/>
	<stop  offset="1" style="stop-color:#FFE090"/>
</linearGradient>
<path class="st12" d="M280.14,46.57c-4.25,0-7.75-1.1-10.52-3.29c-2.77-2.19-4.15-5.18-4.15-8.98c0-4.11,1.37-7.35,4.1-9.73
	c2.73-2.38,6.25-3.58,10.57-3.58c4.07,0,7.05,0.72,8.95,2.17c1.9,1.44,2.84,3.42,2.84,5.92c0,0.49-0.06,0.96-0.18,1.41
	c-0.12,0.45-0.31,0.9-0.57,1.33c-0.26,0.44-0.61,0.84-1.04,1.2c-0.44,0.37-0.93,0.7-1.49,0.99c-0.56,0.3-1.22,0.52-1.98,0.68
	c-0.77,0.16-1.58,0.23-2.45,0.23l-7.36,0.05c0.35,1.11,0.97,1.99,1.88,2.64c0.9,0.64,2.05,0.97,3.44,0.97c1.5,0,3.03-0.19,4.59-0.57
	c0.66-0.17,1.38-0.45,2.17-0.84c0.78-0.38,1.35-0.57,1.7-0.57c0.59,0,1.05,0.17,1.38,0.52c0.33,0.35,0.5,0.78,0.5,1.3
	c0,0.63-0.28,1.38-0.84,2.27c-0.56,0.89-1.33,1.77-2.32,2.66c-0.99,0.89-2.31,1.64-3.94,2.27
	C283.77,46.26,282.02,46.57,280.14,46.57z M276.59,31.65c2.4-0.03,3.71-0.05,3.91-0.05c0.52,0,0.9-0.31,1.15-0.94
	c0.17-0.45,0.26-1.08,0.26-1.88c0-2.19-0.66-3.29-1.98-3.29c-0.49,0-0.97,0.26-1.44,0.78s-0.88,1.26-1.23,2.22
	C276.92,29.45,276.69,30.5,276.59,31.65z"/>
</svg>
