<?xml version="1.0" encoding="utf-8"?>
<!-- Generator: Adobe Illustrator 16.0.0, SVG Export Plug-In . SVG Version: 6.00 Build 0)  -->
<!DOCTYPE svg PUBLIC "-//W3C//DTD SVG 1.1//EN" "http://www.w3.org/Graphics/SVG/1.1/DTD/svg11.dtd">
<svg version="1.1" id="Capa_1" xmlns="http://www.w3.org/2000/svg" xmlns:xlink="http://www.w3.org/1999/xlink" x="0px" y="0px"
	 width="512px" height="512px" viewBox="0 0 512 512" enable-background="new 0 0 512 512" xml:space="preserve">
<path fill="#C99F83" d="M236.011,335.357l108.486-62.923c12.7-7.701,29.152-4.709,38.327,6.97
	c8.834,11.244,8.288,27.22-1.295,37.834l-120.568,51.749L236.011,335.357z"/>
<path fill="#DBB497" d="M280.949,338.021l108.486-62.923c12.7-7.701,29.151-4.709,38.327,6.97
	c8.835,11.245,8.288,27.22-1.295,37.834l-120.566,51.75L280.949,338.021z"/>
<path fill="#F0D0B4" d="M466.248,311.654c0,7.063-2.536,14.108-7.569,19.68l-20.054,22.21l-41.156,45.582
	c-6.85,7.585-16.182,12.461-26.309,13.751l-185.824,23.668l-74.676-55.337c-0.359-0.596-4.061-81.552-4.061-81.552l43.699-33.561
	c20.373-15.643,43.34-27.445,67.775-34.899c1.035-0.318,2.071-0.628,3.107-0.921c7.414-2.137,14.966-3.882,22.607-5.211l7.569-1.321
	c15.643-2.715,33.417-0.544,36.587,15.009c0.4,1.958,0.596,3.923,0.596,5.872c0,9.347-3.198,18.116-20.047,19.973
	c-72.46,7.432-57.674,38.597-43.236,46.47c14.438,7.875,77.607,37.603,129.278,16.158c17.864-10.832,67.106-40.688,67.106-40.688
	c12.699-7.7,29.148-4.707,38.324,6.974C464.168,298.851,466.248,305.261,466.248,311.654L466.248,311.654z"/>
<path fill="#DBB497" d="M438.625,353.544l-41.156,45.582c-6.85,7.585-16.182,12.461-26.309,13.751l-185.824,23.668l-40.597-30.085
	l-6.878-52.452C194.022,449.015,416.122,378.467,438.625,353.544L438.625,353.544z"/>
<path fill="#FFCBBE" d="M22.452,12.226"/>
<path fill="#80CFFF" d="M185.336,436.543l-60.011,38.359L87.877,409.81l-41.291-71.79l60.011-38.361l45.082,78.37L185.336,436.543z"
	/>
<path fill="#41AEFF" d="M185.336,436.543l-60.011,38.359l-37.449-65.094c42.954,3.369,63.801-31.781,63.801-31.781L185.336,436.543z
	"/>
<circle fill="#F9F6F6" cx="138.5" cy="428.294" r="12.917"/>
<path fill="#FFE090" d="M365.134,114.846l-14.069,13.718c-4.335,4.222-6.313,10.304-5.287,16.266l3.319,19.367
	c2.574,15.012-13.178,26.459-26.662,19.371l-17.394-9.143c-5.353-2.817-11.747-2.817-17.099,0l-17.394,9.143
	c-13.484,7.088-29.238-4.36-26.663-19.371l3.321-19.367c1.025-5.962-0.954-12.044-5.287-16.266l-14.071-13.718
	c-10.905-10.631-4.885-29.15,10.185-31.34l19.446-2.827c5.984-0.871,11.16-4.628,13.837-10.053l8.696-17.623
	c3.37-6.828,9.923-10.242,16.478-10.242s13.11,3.415,16.479,10.242l8.697,17.623c2.676,5.424,7.852,9.183,13.836,10.053
	l19.446,2.827C370.021,85.696,376.039,104.215,365.134,114.846z"/>
<path fill="#FCD272" d="M251.906,117.231c5.753,14.628,14.289,24.411,8.293,38.221c-5.992,13.815-2.963,31.958,27.743,18.974
	l-17.394,9.143c-13.484,7.089-29.238-4.359-26.663-19.371l3.321-19.368c1.025-5.962-0.954-12.044-5.287-16.266l-14.071-13.718
	c-10.905-10.631-4.885-29.149,10.185-31.341l19.446-2.826c5.984-0.87,11.16-4.628,13.837-10.053l8.696-17.623
	c3.369-6.828,9.923-10.242,16.478-10.242c-12.93,0-7.556,37.293-26.07,47.077C251.906,99.626,246.151,102.603,251.906,117.231
	L251.906,117.231z"/>
<path fill="#FCA1C0" d="M195.839,65.236l-0.877,1.52c-3.094,5.358-9.81,7.407-15.367,4.688l-17.098-8.367
	c-6.125-2.997-8.429-10.554-5.02-16.458l2.18-3.775c3.409-5.904,11.105-7.687,16.763-3.882l15.794,10.624
	C197.349,53.038,198.934,59.877,195.839,65.236z"/>
<path fill="#FFE090" d="M397.146,179.409l0.876-1.52c3.095-5.359,9.811-7.407,15.369-4.687l17.096,8.366
	c6.124,2.997,8.43,10.554,5.02,16.458l-2.18,3.776c-3.408,5.904-11.104,7.687-16.762,3.882l-15.795-10.624
	C395.634,191.607,394.05,184.769,397.146,179.409z"/>
<path fill="#FFE090" d="M180.308,121.445v1.754c0,6.189-4.792,11.32-10.965,11.743l-18.989,1.304
	c-6.803,0.466-12.578-4.925-12.578-11.744v-4.359c0-6.817,5.774-12.209,12.578-11.744l18.989,1.304
	C175.516,110.126,180.308,115.257,180.308,121.445z"/>
<path fill="#FCA1C0" d="M412.675,123.199v-1.754c0-6.188,4.791-11.32,10.965-11.743l18.989-1.304
	c6.804-0.466,12.576,4.925,12.576,11.744v4.36c0,6.817-5.772,12.209-12.576,11.743l-18.989-1.303
	C417.466,134.52,412.675,129.388,412.675,123.199L412.675,123.199z"/>
<path fill="#FCA1C0" d="M194.962,177.889l0.877,1.519c3.094,5.359,1.51,12.199-3.625,15.653l-15.795,10.624
	c-5.658,3.805-13.354,2.022-16.762-3.882l-2.18-3.776c-3.409-5.904-1.104-13.46,5.02-16.458l17.098-8.366
	C185.153,170.482,191.868,172.53,194.962,177.889z"/>
<path fill="#FFE090" d="M398.021,66.756l-0.877-1.52c-3.095-5.358-1.511-12.199,3.625-15.652l15.794-10.624
	c5.657-3.804,13.354-2.022,16.762,3.882l2.181,3.775c3.409,5.905,1.104,13.461-5.021,16.458l-17.097,8.367
	C407.831,74.163,401.115,72.115,398.021,66.756z"/>
<rect x="69.838" y="-117.5" fill="#FCA1C0" width="45.842" height="45.842"/>
<rect x="166.109" y="-117.5" fill="#FFE090" width="45.842" height="45.842"/>
<rect x="298.271" y="-117.5" fill="#41AEFF" width="45.842" height="45.842"/>
<rect x="392.276" y="-117.5" fill="#48E1FF" width="45.842" height="45.842"/>
</svg>
