<?xml version="1.0" standalone="no"?>
<!DOCTYPE svg PUBLIC "-//W3C//DTD SVG 20010904//EN"
 "http://www.w3.org/TR/2001/REC-SVG-20010904/DTD/svg10.dtd">
<svg version="1.0" xmlns="http://www.w3.org/2000/svg"
 width="512.000000pt" height="512.000000pt" viewBox="0 0 512.000000 512.000000"
 preserveAspectRatio="xMidYMid meet">
<metadata>
Created by potrace 1.14, written by Peter Selinger 2001-2017
</metadata>
<g transform="translate(0.000000,512.000000) scale(0.100000,-0.100000)"
fill="#000000" stroke="none">
<path d="M1530 5053 c-81 -13 -201 -47 -257 -73 -296 -137 -515 -427 -634
-840 -22 -75 -65 -274 -73 -340 -4 -25 -9 -61 -12 -80 -3 -19 -7 -51 -9 -70
-9 -74 -17 -136 -20 -160 -4 -29 -14 -98 -21 -155 -3 -22 -9 -65 -14 -95 -5
-30 -12 -75 -15 -100 -3 -25 -8 -52 -10 -60 -2 -8 -7 -35 -10 -60 -3 -25 -10
-67 -15 -95 -5 -27 -12 -66 -14 -85 -3 -19 -8 -46 -11 -60 -14 -74 -13 -65
-40 -210 -7 -41 -30 -149 -50 -240 -20 -91 -38 -175 -41 -187 -2 -12 -9 -34
-14 -48 -5 -14 -8 -25 -5 -25 2 0 -1 -15 -6 -32 -6 -18 -12 -43 -15 -56 -2
-13 -33 -123 -68 -245 -92 -319 -97 -352 -101 -567 -7 -346 93 -612 309 -824
156 -152 381 -258 606 -285 135 -15 404 -4 515 23 11 2 50 12 87 20 75 18 161
47 623 211 182 65 447 158 590 207 401 139 796 274 945 325 464 156 750 315
981 543 193 191 288 364 320 581 10 73 8 241 -5 294 -2 11 -9 41 -15 67 -18
78 -67 204 -115 294 -143 269 -359 512 -741 835 -22 19 -42 36 -45 39 -9 10
-272 233 -365 310 -49 41 -92 77 -95 80 -3 3 -52 43 -110 90 -58 46 -107 87
-110 90 -5 6 -316 250 -440 346 -137 106 -388 292 -448 333 -138 93 -324 186
-475 236 -105 35 -112 37 -235 59 -68 12 -265 18 -322 9z"/>
</g>
</svg>
